<svg id="logosandtypes_com" xmlns="http://www.w3.org/2000/svg" viewBox="0 0 150 150"><style>.st1{fill:#f9720e}</style><path d="M0 0h150v150H0V0z" fill="none" id="Layer_3"/><g id="ooVoo"><path class="st1" d="M44.2 79.4l-14.5-25c-3.7-6.3-1.6-14.7 5-18.4.3 0 .5-.3.5-.3 6.6-3.4 14.5-.3 18.2 5.8l6.8 11.8c.5.8 1.6 1.1 2.4.8.3-.3.5-.3.8-.8L70 41.8c1.1-1.6 1.1-3.7 0-5.3l-2.4-4.2c-3.4-6.1-9.2-10.8-15.8-13.4-12.1-4.5-26.1-.5-34 9.5-7.9 9.7-9 23.2-2.6 34l14.5 25c3.4 5.8 12.1 5.5 14.7-.8v-.3c1.4-1.9 1.2-4.8-.2-6.9zM98.7 19.4c-6.6 2.4-12.4 7.1-15.8 13.4L49 91.5c-8.4 14.5-3.4 32.9 11.1 41.3 4.5 2.6 9.7 3.9 15 4.2h.3c16.6 0 30-13.7 30-30.3 0-5.3-1.3-10.5-4.2-15L90 72.6c-.5-.8-1.6-1.1-2.4-.8-.3.3-.5.3-.8.8l-6.6 11.6c-1.1 1.6-1.1 3.7 0 5.3l5.8 10c3.7 6.3 2.4 14.7-3.9 19-4.2 2.6-9.7 2.9-14 .3-6.3-3.7-8.7-11.8-5-18.4l34-58.7c3.7-6.3 11.8-8.7 18.4-5 .3.3.5.3.5.3 6.1 3.9 7.6 12.4 3.9 18.7l-14 24.2c-1.3 2.4-1.6 5-.5 7.6v.3c2.6 6.1 11.3 6.6 14.7.8l14.5-25c6.3-10.8 5.3-24.5-2.6-34-7.2-11-21.2-14.7-33.3-10.2z"/></g></svg>